<?xml version="1.0" standalone="no"?>
<!DOCTYPE svg PUBLIC "-//W3C//DTD SVG 20010904//EN"
 "http://www.w3.org/TR/2001/REC-SVG-20010904/DTD/svg10.dtd">
<svg version="1.0" xmlns="http://www.w3.org/2000/svg"
 width="650.000000pt" height="650.000000pt" viewBox="0 0 650.000000 650.000000"
 preserveAspectRatio="xMidYMid meet">
<metadata>
Created by potrace 1.11, written by Peter Selinger 2001-2013
</metadata>
<g transform="translate(0.000000,650.000000) scale(0.100000,-0.100000)"
fill="#000000" stroke="none">
<path d="M4350 6277 c-39 -21 -1063 -791 -1081 -813 -24 -29 -28 -47 -15 -76
13 -31 1060 -872 1113 -894 20 -9 47 -12 67 -9 40 8 1101 848 1130 895 15 25
16 35 7 58 -8 19 -179 153 -557 436 -512 385 -548 409 -592 413 -28 2 -57 -1
-72 -10z"/>
<path d="M2002 5539 c-37 -11 -1621 -1194 -1646 -1230 -19 -27 -21 -77 -5
-113 11 -23 1582 -1286 1636 -1314 32 -17 126 -17 161 0 20 11 1041 818 1143
905 14 11 33 0 147 -89 72 -57 131 -106 132 -109 0 -3 -262 -208 -582 -456
-321 -248 -596 -463 -612 -479 -16 -16 -43 -58 -60 -94 l-31 -65 -3 -795 c-2
-547 0 -807 8 -832 11 -39 36 -54 74 -44 12 3 233 169 491 369 l470 363 6 -91
c5 -87 22 -136 61 -186 7 -9 269 -217 582 -463 385 -303 576 -446 592 -446 13
0 28 9 34 19 6 13 10 236 10 656 0 688 2 667 -54 740 -14 17 -155 134 -315
259 l-291 229 0 163 c0 90 2 164 4 164 2 0 178 -139 391 -310 403 -322 415
-330 489 -316 44 8 1294 1006 1314 1049 27 57 15 69 -395 377 l-384 288 128
99 c102 79 132 108 152 148 l26 49 3 547 c3 531 2 547 -17 570 -19 23 -21 23
-49 8 -16 -9 -246 -184 -512 -390 -326 -252 -491 -386 -509 -413 -25 -38 -26
-45 -29 -207 l-3 -168 -155 -115 -154 -116 -1 262 c-1 268 -3 289 -42 353 -18
28 -964 780 -1007 799 -13 6 -25 5 -35 -4 -12 -10 -15 -40 -15 -161 0 -82 -3
-149 -7 -149 -3 0 -225 164 -492 364 -267 200 -501 368 -520 375 -40 13 -83
13 -129 0z"/>
<path d="M206 3778 c-14 -20 -16 -115 -16 -830 0 -768 1 -810 19 -858 10 -27
32 -68 49 -90 18 -25 307 -259 733 -593 387 -304 715 -560 729 -570 33 -23 63
-22 86 4 18 20 19 49 19 838 l0 816 -32 65 c-17 36 -40 75 -51 87 -17 19
-1379 1092 -1442 1136 -34 24 -76 22 -94 -5z"/>
<path d="M6195 2698 c-54 -32 -1157 -893 -1175 -918 -50 -70 -50 -69 -50 -742
0 -415 4 -636 10 -649 19 -34 55 -22 147 48 352 268 1061 820 1076 837 10 12
29 44 43 71 l24 50 0 641 c0 608 -1 642 -18 657 -22 20 -30 20 -57 5z"/>
</g>
</svg>
